# xmcd
#
# Track frame offsets: 
#        150
#        4392
#        29942
#        49834
#        75087
#        100341
#        121095
#        151949
#        165891
#        201915
#        220160
#        256788
#        290385
#        331997
#
# Disc length: 4541 seconds
#
# Revision: 0
# Processed by: cddbd v1.5.2PL0 Copyright (c) Steve Scherf et al.
# Submitted via: ExactAudioCopy v0.99pb4
#
DISCID=b411bb0e
DTITLE=Elvis Presley - Love Letters From Elvis FTD - Disc 2
DYEAR=1900
DGENRE=
TTITLE0=Radio Commercial
TTITLE1=The Sound Of Your Cry - Takes 4 - 6
TTITLE2=Cindy, Cindy - Takes 2 - 3
TTITLE3=Got My Mojo Working - Take 1
TTITLE4=I'll Never Know - Takes 2 - 3
TTITLE5=It Ain't No Big Thing - Takes 3 - 6
TTITLE6=This Is Our Dance - Takes 6,7,9 and 11
TTITLE7=Life - Take 10
TTITLE8=Heart Of Rome - Take 2
TTITLE9=Love Letters - Takes 1 and 3
TTITLE10=If I Were You - Takes 2 - 5
TTITLE11=Only Believe - Takes 1 - 4
TTITLE12=Sylvia - Takes 1 - 4 and 9
TTITLE13=Rags To Riches - Take 3
EXTD=
EXTT0=
EXTT1=
EXTT2=
EXTT3=
EXTT4=
EXTT5=
EXTT6=
EXTT7=
EXTT8=
EXTT9=
EXTT10=
EXTT11=
EXTT12=
EXTT13=
PLAYORDER=
